<?xml version="1.0" encoding="UTF-8"?>
<!DOCTYPE svg PUBLIC "-//W3C//DTD SVG 1.1//EN" "http://www.w3.org/Graphics/SVG/1.1/DTD/svg11.dtd">
<svg xmlns="http://www.w3.org/2000/svg" version="1.1" width="512px" height="512px" style="shape-rendering:geometricPrecision; text-rendering:geometricPrecision; image-rendering:optimizeQuality; fill-rule:evenodd; clip-rule:evenodd" xmlns:xlink="http://www.w3.org/1999/xlink">
<g><path style="opacity:0.993" fill="#f0f0f0" d="M 360.5,-0.5 C 371.167,-0.5 381.833,-0.5 392.5,-0.5C 430.889,4.85855 461.889,22.8585 485.5,53.5C 412.833,52.1667 340.167,52.1667 267.5,53.5C 291.111,22.8585 322.111,4.85855 360.5,-0.5 Z"/></g>
<g><path style="opacity:0.997" fill="#eaeaea" d="M 485.5,53.5 C 495.166,66.8346 502.166,81.5012 506.5,97.5C 419.833,97.5 333.167,97.5 246.5,97.5C 250.825,81.5174 257.825,66.8507 267.5,53.5C 340.167,52.1667 412.833,52.1667 485.5,53.5 Z"/></g>
<g><path style="opacity:0.985" fill="#b2b2b2" d="M 140.5,129.5 C 100.663,129.832 60.9965,129.499 21.5,128.5C 32.9646,116.535 44.6313,104.702 56.5,93C 76.9566,79.8111 96.9566,80.4777 116.5,95C 124.879,106.267 132.879,117.767 140.5,129.5 Z"/></g>
<g><path style="opacity:0.997" fill="#e3e3e3" d="M 246.5,97.5 C 333.167,97.5 419.833,97.5 506.5,97.5C 508.702,104.384 510.369,111.384 511.5,118.5C 511.5,129.167 511.5,139.833 511.5,150.5C 511.167,150.5 510.833,150.5 510.5,150.5C 488.686,148.837 466.686,147.837 444.5,147.5C 452.796,139.962 453.463,131.796 446.5,123C 436.068,116.82 427.901,118.987 422,129.5C 420.731,136.87 422.898,142.87 428.5,147.5C 413.833,148.833 399.167,148.833 384.5,147.5C 392.796,139.962 393.463,131.796 386.5,123C 376.068,116.82 367.901,118.987 362,129.5C 360.731,136.87 362.898,142.87 368.5,147.5C 353.833,148.833 339.167,148.833 324.5,147.5C 332.826,140.033 333.492,131.866 326.5,123C 316.068,116.82 307.901,118.987 302,129.5C 300.731,136.87 302.898,142.87 308.5,147.5C 286.109,147.855 263.776,148.855 241.5,150.5C 241.677,145.134 241.344,139.8 240.5,134.5C 240.841,121.763 242.841,109.43 246.5,97.5 Z"/></g>
<g><path style="opacity:0.993" fill="#ababab" d="M 21.5,128.5 C 60.9965,129.499 100.663,129.832 140.5,129.5C 147.426,139.692 154.093,150.025 160.5,160.5C 107.833,160.5 55.1667,160.5 2.5,160.5C 5.54888,147.806 11.8822,137.14 21.5,128.5 Z"/></g>
<g><path style="opacity:1" fill="#aeaeae" d="M 324.5,147.5 C 319.137,150.079 313.804,150.079 308.5,147.5C 302.898,142.87 300.731,136.87 302,129.5C 307.901,118.987 316.068,116.82 326.5,123C 333.492,131.866 332.826,140.033 324.5,147.5 Z"/></g>
<g><path style="opacity:1" fill="#aeaeae" d="M 384.5,147.5 C 379.137,150.079 373.804,150.079 368.5,147.5C 362.898,142.87 360.731,136.87 362,129.5C 367.901,118.987 376.068,116.82 386.5,123C 393.463,131.796 392.796,139.962 384.5,147.5 Z"/></g>
<g><path style="opacity:1" fill="#aeaeae" d="M 444.5,147.5 C 439.137,150.079 433.804,150.079 428.5,147.5C 422.898,142.87 420.731,136.87 422,129.5C 427.901,118.987 436.068,116.82 446.5,123C 453.463,131.796 452.796,139.962 444.5,147.5 Z"/></g>
<g><path style="opacity:0.997" fill="#dddddd" d="M 308.5,147.5 C 313.804,150.079 319.137,150.079 324.5,147.5C 339.167,148.833 353.833,148.833 368.5,147.5C 373.804,150.079 379.137,150.079 384.5,147.5C 399.167,148.833 413.833,148.833 428.5,147.5C 433.804,150.079 439.137,150.079 444.5,147.5C 466.686,147.837 488.686,148.837 510.5,150.5C 509.54,163.338 506.54,175.671 501.5,187.5C 418.5,187.5 335.5,187.5 252.5,187.5C 246.832,175.842 243.165,163.508 241.5,150.5C 263.776,148.855 286.109,147.855 308.5,147.5 Z"/></g>
<g><path style="opacity:0.996" fill="#a5a5a5" d="M 2.5,160.5 C 55.1667,160.5 107.833,160.5 160.5,160.5C 165.891,167.591 171.057,174.925 176,182.5C 177.868,185.605 179.035,188.938 179.5,192.5C 119.285,191.843 59.2848,192.51 -0.5,194.5C -0.5,186.167 -0.5,177.833 -0.5,169.5C 0.37448,166.465 1.37448,163.465 2.5,160.5 Z"/></g>
<g><path style="opacity:0.996" fill="#d7d7d7" d="M 252.5,187.5 C 335.5,187.5 418.5,187.5 501.5,187.5C 493.668,206.327 482.001,222.327 466.5,235.5C 393.841,233.503 320.841,232.836 247.5,233.5C 250.727,222.652 254.06,211.819 257.5,201C 255.682,196.535 254.015,192.035 252.5,187.5 Z"/></g>
<g><path style="opacity:0.996" fill="#9f9f9f" d="M 179.5,192.5 C 182.402,202.849 181.902,213.182 178,223.5C 176.974,226.239 175.474,228.572 173.5,230.5C 118.177,228.504 62.51,227.837 6.5,228.5C 3.26891,217.677 0.935577,206.677 -0.5,195.5C -0.5,195.167 -0.5,194.833 -0.5,194.5C 59.2848,192.51 119.285,191.843 179.5,192.5 Z"/></g>
<g><path style="opacity:0.994" fill="#999999" d="M 6.5,228.5 C 62.51,227.837 118.177,228.504 173.5,230.5C 165.926,239.579 157.759,248.245 149,256.5C 148.666,258.847 148.833,261.181 149.5,263.5C 105.428,263.172 61.4278,263.506 17.5,264.5C 12.6275,252.882 8.96086,240.882 6.5,228.5 Z"/></g>
<g><path style="opacity:0.986" fill="#d2d2d2" d="M 247.5,233.5 C 320.841,232.836 393.841,233.503 466.5,235.5C 435.994,262.553 400.327,273.72 359.5,269C 342.161,266.442 325.661,261.275 310,253.5C 292.19,259.27 274.356,264.937 256.5,270.5C 244.285,268.107 239.452,260.774 242,248.5C 243.568,243.286 245.401,238.286 247.5,233.5 Z"/></g>
<g><path style="opacity:0.994" fill="#929292" d="M 149.5,263.5 C 152.943,276.166 157.943,288.166 164.5,299.5C 121.167,299.5 77.8333,299.5 34.5,299.5C 28.0659,288.296 22.3992,276.63 17.5,264.5C 61.4278,263.506 105.428,263.172 149.5,263.5 Z"/></g>
<g><path style="opacity:0.993" fill="#8c8c8c" d="M 34.5,299.5 C 77.8333,299.5 121.167,299.5 164.5,299.5C 172.381,310.721 181.381,321.054 191.5,330.5C 145.833,331.167 100.167,331.833 54.5,332.5C 46.5804,322.34 39.9137,311.34 34.5,299.5 Z"/></g>
<g><path style="opacity:0.981" fill="#868686" d="M 368.5,362.5 C 330.663,362.832 292.996,362.498 255.5,361.5C 263.662,352.505 272.328,344.005 281.5,336C 297.006,327.766 312.673,327.433 328.5,335C 342.073,343.942 355.407,353.109 368.5,362.5 Z"/></g>
<g><path style="opacity:0.992" fill="#868686" d="M 191.5,330.5 C 207.317,345.243 225.65,355.576 246.5,361.5C 190.167,362.167 133.833,362.833 77.5,363.5C 69.1046,353.71 61.4379,343.377 54.5,332.5C 100.167,331.833 145.833,331.167 191.5,330.5 Z"/></g>
<g><path style="opacity:0.996" fill="#7f7f7f" d="M 246.5,361.5 C 249.579,362.372 252.579,362.372 255.5,361.5C 292.996,362.498 330.663,362.832 368.5,362.5C 384.372,372.193 399.872,382.527 415,393.5C 417.385,396.379 419.552,399.379 421.5,402.5C 318.833,402.5 216.167,402.5 113.5,402.5C 100.346,390.491 88.3458,377.491 77.5,363.5C 133.833,362.833 190.167,362.167 246.5,361.5 Z"/></g>
<g><path style="opacity:0.997" fill="#797979" d="M 113.5,402.5 C 216.167,402.5 318.833,402.5 421.5,402.5C 427.205,412.645 428.871,423.311 426.5,434.5C 333.833,434.5 241.167,434.5 148.5,434.5C 136.208,424.543 124.541,413.876 113.5,402.5 Z"/></g>
<g><path style="opacity:0.996" fill="#737373" d="M 148.5,434.5 C 241.167,434.5 333.833,434.5 426.5,434.5C 423.574,447.774 416.574,458.441 405.5,466.5C 334.833,465.167 264.167,465.167 193.5,466.5C 177.583,457.049 162.583,446.382 148.5,434.5 Z"/></g>
<g><path style="opacity:0.992" fill="#6d6d6d" d="M 405.5,466.5 C 395.339,477.494 384.672,487.994 373.5,498C 363.576,504.467 352.91,508.967 341.5,511.5C 332.833,511.5 324.167,511.5 315.5,511.5C 271.605,505.202 230.938,490.202 193.5,466.5C 264.167,465.167 334.833,465.167 405.5,466.5 Z"/></g>
</svg>
